<svg height="220" width="220" version="1.1" xmlns="http://www.w3.org/2000/svg" xmlns:xlink="http://www.w3.org/1999/xlink" x="0px" y="0px" viewBox="0 0 511.999 511.999"><g><path style="fill:#FF5023;" d="M154.854,189.911l-66.065,17.715c-11.081,2.971-15.493,16.32-8.365,25.309l0,0 c11.063,13.953,32.348,13.618,42.967-0.675L154.854,189.911z"></path><path style="fill:#FF5023;" d="M154.854,189.911l66.065,17.715c11.081,2.971,15.493,16.32,8.365,25.309l0,0 c-11.063,13.953-32.348,13.618-42.967-0.675L154.854,189.911z"></path><path style="fill:#FF5023;" d="M7.501,280.536c0,29.561,66.176,41.517,147.808,41.517c2.771,0,5.524-0.015,8.257-0.043 L70.521,157.836C36.996,209.14,7.501,265.4,7.501,280.536z"></path><path style="fill:#FF5023;" d="M356.69,189.951c35.303,0,147.808,186.429,147.808,215.99c0,29.561-66.176,41.517-147.808,41.517 s-147.808-11.956-147.808-41.517C208.882,376.379,321.387,189.951,356.69,189.951z"></path><path style="fill:#FF5023;" d="M356.235,315.316l-66.065,17.715c-11.081,2.971-15.493,16.32-8.365,25.309l0,0 c11.063,13.953,32.348,13.618,42.967-0.675L356.235,315.316z"></path><path style="fill:#FF5023;" d="M356.235,315.316l66.065,17.715c11.081,2.971,15.493,16.32,8.365,25.309l0,0 c-11.063,13.953-32.348,13.618-42.967-0.675L356.235,315.316z"></path></g><path style="fill:#C3FB3A;" d="M356.69,189.951c-17.227,0-52.838,44.395-84.789,93.291c-33.525,51.304-63.02,107.564-63.02,122.699 c0,29.561,66.176,41.517,147.808,41.517c2.771,0,5.524-0.015,8.257-0.043c77.791-0.79,139.551-12.917,139.551-41.474 C504.498,376.379,391.993,189.951,356.69,189.951z"></path><path style="fill:#65C27C;" d="M271.356,405.94c0-15.136,29.495-71.395,63.02-122.699c18.002-27.551,37.167-53.671,53.551-71.228 c-12.693-13.6-23.717-22.063-31.237-22.063c-17.227,0-52.838,44.395-84.789,93.291c-33.525,51.304-63.02,107.564-63.02,122.699 c0,29.561,66.176,41.517,147.808,41.517c2.771,0,5.524-0.015,8.257-0.043c7.834-0.08,15.503-0.276,22.966-0.591 C321.292,444.01,271.356,431.618,271.356,405.94z"></path><path style="fill:#FF5023;" d="M293.489,251.767c-27.985-61.265-109.161-187.222-138.18-187.222 c-17.227,0-52.838,44.395-84.789,93.291l93.047,164.173c34.017-0.346,64.968-2.859,89.03-7.966 C265.284,292.93,279.5,271.111,293.489,251.767z"></path><path style="fill:#C3FB3A;" d="M293.489,251.767c-27.985-61.265-109.161-187.222-138.18-187.222 c-35.303,0-147.808,186.429-147.808,215.991c0,29.561,66.176,41.517,147.808,41.517c37.258,0,71.293-2.492,97.288-8.011 C265.285,292.928,279.501,271.111,293.489,251.767z"></path><path style="fill:#65C27C;" d="M69.4,280.536c0-23.311,69.961-144.168,116.855-194.232c-12.569-13.416-23.483-21.758-30.945-21.758 C120.006,64.545,7.501,250.975,7.501,280.536c0,29.561,66.176,41.517,147.808,41.517c10.593,0,20.912-0.209,30.873-0.624 C119.448,318.633,69.4,306.242,69.4,280.536z"></path><g><path style="fill:#FFFFFF;" d="M69.765,213.98l-12.959-7.558c-4.059,6.958-7.939,13.824-11.536,20.406l13.166,7.192 C61.964,227.561,65.777,220.818,69.765,213.98z"></path><path style="fill:#FFFFFF;" d="M36.807,278.839c3.353-8.874,8.964-20.886,16.227-34.735l-13.285-6.968 c-7.542,14.38-13.412,26.968-16.975,36.401L36.807,278.839z"></path><path style="fill:#FFFFFF;" d="M183.071,113.637c-5.843-7.007-11.36-13.096-16.399-18.096l-10.565,10.649 c4.706,4.67,9.901,10.406,15.442,17.053L183.071,113.637z"></path><path style="fill:#FFFFFF;" d="M203.486,166.035l12.379-8.476c-9.255-13.519-18.189-25.714-26.555-36.247l-11.748,9.329 C185.708,140.899,194.43,152.806,203.486,166.035z"></path></g><path d="M511.479,411.278c0.018-0.088,0.029-0.179,0.045-0.267c0.09-0.481,0.176-0.963,0.24-1.454 c0.032-0.24,0.048-0.486,0.073-0.729c0.036-0.349,0.079-0.695,0.102-1.049c0.04-0.605,0.06-1.218,0.06-1.839 c0-16.701-25.329-63.757-48.161-101.28l3.833-0.65l-2.51-14.791l-9.853,1.672c-1.77-2.804-3.501-5.516-5.177-8.106 c-17.776-27.482-34.99-51.047-49.778-68.15c-24.945-28.85-36.865-32.186-43.662-32.186c-0.21,0-0.426,0.003-0.646,0.01 c-0.068,0.002-0.139,0.007-0.207,0.01c-0.155,0.007-0.309,0.013-0.469,0.023c-0.09,0.006-0.183,0.016-0.275,0.023 c-0.144,0.012-0.287,0.022-0.435,0.037c-0.095,0.01-0.195,0.024-0.292,0.036c-0.15,0.018-0.299,0.034-0.454,0.056 c-0.1,0.014-0.205,0.033-0.307,0.049c-0.156,0.025-0.311,0.048-0.471,0.077c-0.116,0.021-0.237,0.048-0.356,0.072 c-0.152,0.03-0.302,0.059-0.457,0.094c-0.13,0.029-0.264,0.064-0.396,0.096c-0.152,0.037-0.302,0.072-0.457,0.113 c-0.14,0.037-0.286,0.081-0.429,0.121c-0.153,0.044-0.305,0.085-0.462,0.133c-0.155,0.047-0.315,0.102-0.473,0.154 c-0.152,0.05-0.302,0.097-0.457,0.151c-0.17,0.059-0.345,0.126-0.519,0.19c-0.151,0.056-0.299,0.109-0.453,0.169 c-0.181,0.071-0.368,0.149-0.554,0.226c-0.155,0.064-0.307,0.125-0.465,0.193c-0.193,0.083-0.392,0.175-0.59,0.265 c-0.156,0.071-0.311,0.14-0.47,0.215c-0.206,0.098-0.418,0.204-0.629,0.309c-0.159,0.079-0.317,0.156-0.479,0.239 c-0.219,0.112-0.444,0.234-0.668,0.354c-0.162,0.087-0.322,0.171-0.487,0.263c-0.232,0.128-0.469,0.266-0.707,0.403 c-0.166,0.096-0.33,0.189-0.498,0.289c-0.243,0.144-0.493,0.299-0.742,0.452c-0.171,0.106-0.341,0.209-0.515,0.319 c-0.255,0.161-0.515,0.332-0.776,0.503c-0.177,0.116-0.352,0.23-0.532,0.35c-0.266,0.178-0.537,0.366-0.81,0.555 c-0.184,0.128-0.367,0.253-0.554,0.386c-0.275,0.195-0.556,0.4-0.838,0.605c-0.193,0.141-0.385,0.28-0.581,0.427 c-0.285,0.212-0.576,0.435-0.868,0.659c-0.202,0.154-0.402,0.307-0.607,0.467c-0.294,0.23-0.594,0.47-0.896,0.711 c-0.213,0.17-0.424,0.34-0.64,0.516c-0.302,0.247-0.611,0.504-0.92,0.762c-0.224,0.187-0.448,0.374-0.675,0.567 c-0.311,0.264-0.628,0.539-0.945,0.815c-0.235,0.205-0.471,0.409-0.71,0.621c-0.319,0.281-0.642,0.573-0.968,0.866 c-0.25,0.225-0.5,0.451-0.753,0.684c-0.326,0.299-0.657,0.607-0.99,0.918c-0.263,0.245-0.526,0.491-0.792,0.744 c-0.333,0.316-0.672,0.641-1.011,0.969c-0.278,0.269-0.558,0.539-0.841,0.816c-0.34,0.333-0.685,0.675-1.032,1.02 c-0.292,0.291-0.585,0.584-0.882,0.883c-0.349,0.352-0.702,0.713-1.058,1.078c-0.307,0.315-0.615,0.632-0.927,0.957 c-0.357,0.371-0.718,0.749-1.081,1.133c-0.321,0.339-0.644,0.681-0.97,1.029c-0.367,0.392-0.739,0.793-1.113,1.198 c-0.333,0.361-0.668,0.725-1.006,1.096c-0.379,0.416-0.762,0.839-1.148,1.267c-0.345,0.383-0.693,0.771-1.043,1.165 c-0.391,0.44-0.786,0.886-1.185,1.339c-0.183,0.208-0.36,0.405-0.545,0.616c-0.149,0.171-0.303,0.353-0.453,0.525 c-0.231,0.266-0.456,0.518-0.689,0.788c-0.278,0.321-0.562,0.66-0.841,0.986c-0.429,0.5-0.859,1.004-1.293,1.515 c-0.511,0.602-1.025,1.214-1.54,1.831c-0.406,0.486-0.814,0.975-1.224,1.47c-0.556,0.672-1.116,1.354-1.678,2.042 c-0.373,0.457-0.747,0.916-1.123,1.38c-0.605,0.747-1.213,1.504-1.825,2.27c-0.34,0.425-0.68,0.853-1.021,1.284 c-0.654,0.826-1.312,1.661-1.973,2.507c-0.302,0.386-0.604,0.774-0.908,1.165c-0.708,0.911-1.419,1.831-2.134,2.764 c-0.26,0.339-0.52,0.679-0.78,1.021c-0.603,0.79-1.205,1.581-1.813,2.386c-8.573-17.301-19.927-37.584-32.387-58.008l3.807-0.646 l-2.51-14.791l-9.849,1.672c-7.532-11.901-15.31-23.628-23-34.608C215.97,109.512,202.416,92.4,190.645,80.01 c-14.891-15.672-26.119-22.972-35.336-22.972c-0.21,0-0.426,0.003-0.646,0.01c-0.068,0.002-0.139,0.007-0.207,0.01 c-0.155,0.007-0.309,0.013-0.469,0.023c-0.089,0.006-0.183,0.016-0.275,0.023c-0.144,0.012-0.287,0.022-0.435,0.037 c-0.095,0.01-0.195,0.024-0.292,0.036c-0.15,0.018-0.299,0.034-0.454,0.056c-0.1,0.014-0.205,0.033-0.307,0.049 c-0.156,0.025-0.31,0.048-0.47,0.077c-0.116,0.021-0.236,0.048-0.354,0.071c-0.152,0.03-0.302,0.059-0.458,0.094 c-0.129,0.029-0.263,0.064-0.394,0.095c-0.152,0.037-0.302,0.072-0.458,0.113c-0.141,0.037-0.286,0.081-0.43,0.122 c-0.153,0.044-0.303,0.085-0.459,0.133c-0.155,0.048-0.316,0.102-0.475,0.154c-0.151,0.05-0.301,0.097-0.455,0.151 c-0.17,0.059-0.345,0.126-0.519,0.191c-0.151,0.056-0.299,0.109-0.453,0.169c-0.181,0.071-0.368,0.15-0.554,0.226 c-0.154,0.064-0.307,0.125-0.464,0.193c-0.193,0.083-0.392,0.175-0.59,0.265c-0.156,0.071-0.311,0.14-0.47,0.215 c-0.206,0.098-0.419,0.204-0.63,0.309c-0.159,0.079-0.316,0.155-0.478,0.239c-0.219,0.113-0.444,0.234-0.669,0.355 c-0.161,0.087-0.321,0.171-0.486,0.262c-0.232,0.128-0.469,0.266-0.707,0.403c-0.166,0.096-0.33,0.189-0.498,0.289 c-0.244,0.145-0.493,0.299-0.743,0.453c-0.171,0.105-0.34,0.208-0.513,0.318c-0.255,0.161-0.516,0.333-0.777,0.504 c-0.176,0.116-0.351,0.229-0.531,0.349c-0.267,0.179-0.54,0.368-0.813,0.557c-0.182,0.127-0.364,0.251-0.549,0.383 c-0.277,0.196-0.561,0.403-0.845,0.61c-0.191,0.139-0.38,0.277-0.574,0.421c-0.287,0.214-0.579,0.437-0.872,0.662 c-0.2,0.154-0.4,0.306-0.604,0.465c-0.295,0.23-0.596,0.471-0.898,0.713c-0.212,0.17-0.423,0.338-0.638,0.514 c-0.304,0.248-0.613,0.506-0.924,0.765c-0.222,0.186-0.444,0.371-0.67,0.563c-0.313,0.266-0.631,0.542-0.951,0.82 c-0.234,0.204-0.469,0.408-0.707,0.618c-0.319,0.282-0.643,0.573-0.968,0.866c-0.25,0.225-0.499,0.451-0.753,0.683 c-0.327,0.299-0.659,0.608-0.992,0.92c-0.261,0.244-0.523,0.49-0.789,0.742c-0.335,0.318-0.675,0.644-1.016,0.974 c-0.276,0.267-0.553,0.535-0.834,0.81c-0.342,0.335-0.689,0.679-1.038,1.027c-0.29,0.289-0.582,0.581-0.877,0.878 c-0.351,0.354-0.706,0.716-1.063,1.083c-0.305,0.312-0.611,0.627-0.92,0.949c-0.359,0.373-0.723,0.755-1.088,1.14 c-0.32,0.337-0.641,0.678-0.966,1.024c-0.368,0.393-0.74,0.793-1.114,1.199c-0.333,0.361-0.668,0.725-1.006,1.096 c-0.379,0.416-0.762,0.839-1.148,1.267c-0.345,0.383-0.693,0.771-1.043,1.165c-0.391,0.44-0.786,0.886-1.185,1.339 c-0.183,0.208-0.36,0.405-0.545,0.616c-0.15,0.172-0.304,0.354-0.455,0.527c-0.231,0.265-0.455,0.517-0.688,0.786 c-0.274,0.317-0.554,0.651-0.83,0.972c-0.438,0.511-0.877,1.025-1.32,1.547c-0.497,0.587-0.998,1.183-1.5,1.783 c-0.422,0.504-0.844,1.011-1.27,1.525c-0.54,0.653-1.083,1.314-1.629,1.982c-0.391,0.479-0.783,0.96-1.177,1.447 c-0.586,0.724-1.174,1.456-1.766,2.197c-0.361,0.452-0.723,0.906-1.086,1.365c-0.633,0.799-1.269,1.607-1.908,2.424 c-0.324,0.415-0.65,0.833-0.976,1.252c-0.683,0.879-1.369,1.767-2.058,2.667c-0.288,0.376-0.578,0.755-0.867,1.135 c-0.73,0.958-1.464,1.926-2.201,2.906c-0.255,0.339-0.51,0.68-0.766,1.021c-0.772,1.031-1.547,2.071-2.325,3.125 c-0.23,0.312-0.461,0.626-0.692,0.939c-0.804,1.092-1.611,2.195-2.422,3.311c-0.214,0.295-0.429,0.592-0.643,0.888 c-0.828,1.144-1.658,2.297-2.493,3.465c-0.206,0.288-0.413,0.579-0.619,0.869c-0.839,1.179-1.681,2.367-2.527,3.569 c-0.216,0.307-0.433,0.617-0.649,0.926c-0.836,1.192-1.673,2.392-2.515,3.607c-0.237,0.341-0.474,0.687-0.711,1.03 c-0.82,1.188-1.641,2.382-2.465,3.59c-0.272,0.398-0.544,0.8-0.816,1.2c-0.791,1.163-1.582,2.331-2.377,3.512 c-0.004,0.006-0.008,0.011-0.011,0.017l-0.046-0.081l-6.734,10.306l-2.5,3.826l0.006,0.011c-0.941,1.455-1.9,2.95-2.873,4.477 c-0.758,1.187-1.516,2.38-2.273,3.578l-10.672-1.811l-2.51,14.791l4.64,0.787c-8.05,13.213-15.817,26.66-22.675,39.355 C11.562,244.24,0.599,268.129,0.029,279.614C0.009,279.939,0,280.243,0,280.536c0,40.514,84.458,49.018,155.309,49.018 c1.312,0,2.601-0.011,3.902-0.018l0.011,0.02l4.42-0.045h0.004l12.721-0.132l-0.057-0.102c23.28-0.618,43.873-2.285,61.554-4.969 c-3.801,6.585-7.453,13.106-10.882,19.445c-13.927,25.652-25.001,49.732-25.574,61.276c-0.016,0.314-0.025,0.618-0.025,0.911 c0,40.515,84.459,49.019,155.31,49.019c1.297,0,2.599-0.004,3.906-0.01l0.007,0.012l2.647-0.027c1.305-0.01,2.614-0.023,3.926-0.04 l10.573-0.106l-0.053-0.094C439.89,453.081,505.058,443.542,511.479,411.278z M496.998,405.94c0,0.325-0.024,0.645-0.052,0.964 c-0.014,0.145-0.028,0.289-0.048,0.434c-0.012,0.093-0.031,0.184-0.045,0.276c-0.853,5.128-5.658,10.452-15.44,15.266 c-0.506,0.246-1.017,0.486-1.532,0.722l-32.874-49.787l-12.52,8.267l30.902,46.8c-1.189,0.348-2.339,0.669-3.424,0.957 c-13.713,3.651-31.049,6.359-51.249,8.05l-16.464-29.05l-13.053,7.397l12.91,22.779c-7.929,0.42-16.214,0.701-24.822,0.838 l-27.954-49.323l14.903-49.298l16.906,55.928l14.359-4.341l-11.644-38.517l5.82,7.833c6.463,8.699,16.384,13.786,27.22,13.957 c0.188,0.003,0.373,0.004,0.561,0.004c10.621,0,20.469-4.754,27.086-13.1c4.922-6.208,6.376-14.404,3.89-21.926 c-2.485-7.522-8.538-13.236-16.19-15.288l-32.898-8.822l56.584-9.603C477.677,355.397,496.998,395.918,496.998,405.94z M292.113,340.277l3.03-0.813l2.76,4.871l9.251,16.324c-1.241,0.264-2.517,0.417-3.82,0.438c-0.105,0.002-0.211,0.002-0.316,0.002 c-6.016,0-11.591-2.691-15.337-7.418c-1.799-2.269-2.31-5.147-1.401-7.897C287.19,343.033,289.316,341.027,292.113,340.277z M245.531,307.796c-1.02,0.191-2.053,0.378-3.1,0.561c-0.553,0.097-1.107,0.193-1.667,0.287c-0.98,0.165-1.976,0.326-2.979,0.484 c-0.621,0.098-1.236,0.198-1.866,0.293c-0.985,0.15-1.991,0.293-2.997,0.436c-0.653,0.093-1.293,0.189-1.955,0.279 c-1.532,0.209-3.088,0.41-4.667,0.605c-0.962,0.118-1.947,0.23-2.925,0.343c-0.722,0.083-1.438,0.169-2.169,0.249 c-1.029,0.113-2.074,0.221-3.121,0.329c-0.702,0.072-1.403,0.144-2.113,0.214c-1.074,0.105-2.157,0.207-3.248,0.306 c-0.707,0.064-1.42,0.127-2.134,0.188c-0.416,0.036-0.838,0.07-1.256,0.105l-16.458-29.04l-13.053,7.397l12.905,22.77 c-0.784,0.042-1.56,0.086-2.351,0.125c-0.955,0.047-1.925,0.088-2.889,0.131c-1.092,0.049-2.185,0.097-3.289,0.141 c-0.938,0.037-1.884,0.07-2.831,0.104c-1.165,0.041-2.335,0.079-3.512,0.115c-0.919,0.028-1.84,0.054-2.766,0.078 c-1.249,0.032-2.507,0.06-3.771,0.086c-0.885,0.018-1.766,0.038-2.657,0.053c-0.249,0.004-0.502,0.006-0.751,0.01l-27.952-49.318 l14.903-49.298l16.907,55.928l14.359-4.341l-11.644-38.516l5.82,7.834c6.463,8.698,16.384,13.786,27.22,13.956 c0.188,0.003,0.373,0.005,0.561,0.005c10.621,0,20.469-4.755,27.086-13.1c4.922-6.209,6.376-14.405,3.89-21.928 c-2.486-7.521-8.538-13.235-16.19-15.287l-32.898-8.822l56.582-9.603c0.299,0.484,0.599,0.968,0.898,1.452 c0.33,0.535,0.659,1.07,0.987,1.605c0.442,0.721,0.883,1.441,1.323,2.162c0.325,0.532,0.649,1.064,0.972,1.596 c0.437,0.719,0.871,1.436,1.304,2.154c0.323,0.535,0.646,1.071,0.968,1.606c0.432,0.719,0.861,1.436,1.29,2.154 c0.316,0.528,0.631,1.056,0.945,1.584c0.432,0.726,0.86,1.45,1.288,2.174c0.305,0.516,0.611,1.033,0.914,1.548 c0.432,0.734,0.861,1.467,1.289,2.199c0.294,0.503,0.589,1.007,0.882,1.509c0.432,0.742,0.86,1.482,1.288,2.221 c0.283,0.489,0.567,0.979,0.848,1.467c0.43,0.746,0.854,1.489,1.279,2.232c0.274,0.478,0.549,0.958,0.821,1.435 c0.43,0.755,0.854,1.506,1.279,2.258c0.259,0.458,0.52,0.917,0.776,1.374c0.444,0.79,0.882,1.575,1.32,2.36 c0.229,0.41,0.461,0.823,0.688,1.231c0.494,0.889,0.98,1.772,1.466,2.654c0.164,0.298,0.332,0.599,0.494,0.896 c1.303,2.375,2.573,4.722,3.808,7.033c0.055,0.102,0.107,0.203,0.161,0.305c0.556,1.044,1.107,2.082,1.648,3.111 c0.164,0.311,0.322,0.617,0.484,0.927c0.426,0.813,0.851,1.625,1.267,2.428c0.202,0.389,0.397,0.772,0.596,1.159 c0.368,0.715,0.737,1.431,1.097,2.137c0.214,0.421,0.422,0.835,0.634,1.253c0.336,0.664,0.672,1.328,1,1.983 c0.215,0.43,0.424,0.854,0.636,1.28c0.315,0.634,0.63,1.268,0.937,1.893c0.211,0.429,0.415,0.851,0.622,1.276 c0.298,0.613,0.596,1.225,0.887,1.829c0.203,0.422,0.401,0.839,0.6,1.256c0.199,0.418,0.396,0.834,0.591,1.247 c-0.089,0.124-0.179,0.253-0.267,0.378c-0.893,1.253-1.788,2.517-2.688,3.797c-0.154,0.219-0.309,0.44-0.463,0.66 c-0.9,1.283-1.803,2.577-2.71,3.888c-0.162,0.233-0.324,0.469-0.486,0.704c-0.851,1.232-1.704,2.471-2.56,3.726 c-0.05,0.073-0.1,0.147-0.15,0.22c-0.175,0.256-0.35,0.515-0.525,0.773c-0.859,1.263-1.72,2.532-2.584,3.818l-0.046-0.08 l-5.708,8.734c-0.064,0.098-0.129,0.197-0.193,0.295c-0.161,0.245-0.321,0.493-0.482,0.738l-0.206,0.315l-20.143-30.503 l-12.52,8.267l22.407,33.933l-8.205-1.392l-2.51,14.791l4.638,0.787c-0.517,0.849-1.04,1.692-1.555,2.543 c-0.325,0.064-0.639,0.131-0.967,0.195C246.457,307.624,245.993,307.71,245.531,307.796z M108.732,210.044l27.249-7.307 l-17.805,23.967L108.732,210.044z M126.054,240.608c1.197-1.199,2.326-2.484,3.357-3.874l5.819-7.833l-5.5,18.193L126.054,240.608z M101.091,196.561l-5.122-9.037l23.775,4.036L101.091,196.561z M90.732,214.872l3.03-0.813l12.012,21.195 c-1.241,0.264-2.516,0.417-3.818,0.437c-0.106,0.002-0.212,0.003-0.318,0.003c-6.015-0.001-11.591-2.692-15.337-7.417 c-1.799-2.27-2.31-5.149-1.4-7.899C85.811,217.629,87.936,215.622,90.732,214.872z M173.729,202.738l45.248,12.134 c2.796,0.75,4.922,2.757,5.831,5.506c0.909,2.75,0.398,5.63-1.4,7.898c-3.747,4.727-9.322,7.418-15.337,7.418 c-0.106,0-0.212-0.001-0.318-0.003c-6.136-0.097-11.753-2.977-15.412-7.902L173.729,202.738z M310.113,335.449l27.248-7.307 l-17.805,23.966L310.113,335.449z M327.435,366.013c1.197-1.199,2.326-2.484,3.357-3.874l5.82-7.834l-5.501,18.195L327.435,366.013z M302.471,321.967l-5.122-9.037l23.775,4.036L302.471,321.967z M375.11,328.143l45.247,12.134c2.797,0.75,4.923,2.757,5.831,5.507 c0.909,2.749,0.398,5.628-1.4,7.897c-3.814,4.809-9.51,7.548-15.655,7.415c-6.135-0.097-11.753-2.977-15.412-7.903L375.11,328.143z M389.004,224.448c14.343,16.586,31.124,39.576,48.53,66.486c0.58,0.897,1.149,1.788,1.723,2.681l-83.022,14.091l-68.428-11.615 l-7.119-12.561c0.166-0.251,0.332-0.503,0.497-0.753c0.722-1.091,1.444-2.177,2.163-3.253c0.275-0.412,0.55-0.822,0.825-1.232 c0.725-1.081,1.449-2.156,2.17-3.221c0.061-0.089,0.121-0.18,0.182-0.269c0.196-0.289,0.391-0.575,0.587-0.863 c0.792-1.165,1.582-2.322,2.368-3.467c0.617-0.898,1.233-1.785,1.849-2.672c0.26-0.376,0.522-0.755,0.782-1.128 c0.695-0.997,1.388-1.986,2.08-2.97c0.144-0.205,0.288-0.411,0.432-0.615l13.48,23.846l13.061-7.382l-16.87-29.846 c1.677-2.259,3.335-4.455,4.975-6.595c0.19-0.248,0.382-0.501,0.571-0.747c0.636-0.827,1.265-1.635,1.894-2.443 c0.324-0.416,0.65-0.837,0.972-1.248c0.55-0.702,1.095-1.388,1.64-2.075c0.395-0.497,0.79-0.997,1.182-1.487 c0.492-0.615,0.98-1.217,1.467-1.819c0.349-0.431,0.698-0.86,1.045-1.285l35.272,49.033l12.178-8.761l-37.417-52.014 c0.274-0.305,0.548-0.609,0.818-0.905c0.294-0.323,0.585-0.642,0.873-0.955c0.333-0.362,0.663-0.719,0.989-1.069 c0.275-0.295,0.546-0.585,0.816-0.871c0.329-0.35,0.656-0.695,0.978-1.032c0.251-0.263,0.499-0.521,0.745-0.777 c0.328-0.339,0.652-0.674,0.972-1c0.228-0.233,0.454-0.462,0.678-0.688c0.326-0.329,0.649-0.653,0.966-0.969 c0.207-0.206,0.411-0.407,0.615-0.607c0.322-0.316,0.64-0.628,0.953-0.93c0.188-0.181,0.373-0.358,0.557-0.534 c0.319-0.305,0.635-0.605,0.944-0.895c0.165-0.155,0.328-0.306,0.491-0.457c0.317-0.294,0.631-0.583,0.938-0.862 c0.146-0.132,0.289-0.26,0.432-0.389c0.314-0.282,0.625-0.56,0.929-0.826c0.127-0.111,0.251-0.219,0.375-0.327 c0.309-0.268,0.614-0.531,0.911-0.783c0.113-0.096,0.223-0.188,0.335-0.281c0.301-0.253,0.599-0.5,0.889-0.737 c0.098-0.08,0.193-0.156,0.29-0.234c0.294-0.238,0.584-0.47,0.866-0.691c0.085-0.066,0.167-0.13,0.251-0.195 c0.287-0.223,0.57-0.441,0.845-0.647c0.069-0.052,0.136-0.101,0.204-0.152c0.282-0.21,0.559-0.414,0.828-0.607 c0.056-0.04,0.109-0.077,0.164-0.116c0.274-0.195,0.543-0.384,0.803-0.561c0.047-0.032,0.092-0.062,0.138-0.093 c0.263-0.178,0.521-0.35,0.769-0.511c0.038-0.025,0.075-0.048,0.113-0.072c0.252-0.162,0.499-0.318,0.736-0.463 c0.03-0.018,0.057-0.034,0.087-0.052c0.242-0.147,0.478-0.288,0.704-0.418c0.022-0.013,0.043-0.024,0.065-0.037 c0.23-0.132,0.454-0.257,0.669-0.372c0.017-0.009,0.033-0.017,0.05-0.026c0.217-0.116,0.427-0.226,0.629-0.326 c0.013-0.006,0.025-0.012,0.037-0.018c0.204-0.101,0.401-0.196,0.589-0.282c0.008-0.004,0.015-0.007,0.022-0.01 c0.191-0.088,0.375-0.168,0.55-0.242c0.005-0.002,0.008-0.003,0.013-0.005c0.177-0.074,0.347-0.142,0.509-0.203 c0.002-0.001,0.005-0.002,0.007-0.003c0.163-0.061,0.318-0.117,0.464-0.166c0.002-0.001,0.004-0.001,0.006-0.002 c0.146-0.049,0.284-0.092,0.415-0.13c0.007-0.002,0.014-0.004,0.021-0.006c0.125-0.036,0.244-0.068,0.355-0.096 c0.008-0.002,0.014-0.003,0.021-0.005c0.109-0.026,0.211-0.049,0.307-0.069c0.017-0.003,0.031-0.005,0.047-0.008 c0.083-0.016,0.164-0.031,0.237-0.042c0.025-0.004,0.046-0.006,0.069-0.009c0.06-0.008,0.12-0.017,0.172-0.022 c0.03-0.003,0.054-0.004,0.082-0.007c0.04-0.003,0.083-0.007,0.118-0.009c0.059-0.003,0.112-0.004,0.158-0.004 C358.189,197.452,366.787,198.754,389.004,224.448z M218.643,139.485c0.807,1.152,1.615,2.314,2.424,3.482 c0.256,0.369,0.512,0.744,0.768,1.115c0.552,0.801,1.104,1.601,1.657,2.408c0.3,0.438,0.599,0.88,0.899,1.32 c0.514,0.754,1.028,1.508,1.542,2.267c0.304,0.449,0.607,0.902,0.911,1.353c0.505,0.749,1.009,1.497,1.513,2.25 c0.325,0.485,0.649,0.973,0.973,1.46c0.483,0.724,0.965,1.448,1.447,2.175c0.337,0.508,0.672,1.019,1.009,1.529 c0.469,0.712,0.938,1.423,1.407,2.138c0.342,0.523,0.684,1.047,1.026,1.571c0.462,0.708,0.924,1.417,1.385,2.127 c0.338,0.521,0.674,1.043,1.011,1.564c0.422,0.653,0.843,1.307,1.264,1.962l-83.027,14.092l-68.428-11.615l-7.118-12.56 c0.2-0.302,0.4-0.606,0.599-0.907c0.667-1.008,1.334-2.011,1.998-3.005c0.319-0.478,0.638-0.952,0.956-1.427 c0.737-1.098,1.473-2.192,2.206-3.274c0.233-0.343,0.464-0.683,0.696-1.025c0.809-1.19,1.617-2.375,2.422-3.544 c0.13-0.188,0.258-0.374,0.387-0.561c0.895-1.3,1.788-2.59,2.677-3.865c0.001-0.002,0.003-0.004,0.004-0.006 c0.666-0.954,1.327-1.891,1.989-2.83l13.48,23.846l13.061-7.382l-16.87-29.846c1.741-2.345,3.462-4.625,5.163-6.842 c0.115-0.15,0.231-0.303,0.345-0.452c0.69-0.898,1.373-1.776,2.056-2.652c0.269-0.346,0.541-0.696,0.809-1.039 c0.589-0.752,1.172-1.487,1.756-2.221c0.358-0.451,0.717-0.904,1.073-1.349c0.521-0.651,1.037-1.288,1.552-1.925 c0.331-0.409,0.662-0.816,0.991-1.22l35.273,49.033l12.178-8.761l-37.418-52.014c0.271-0.301,0.542-0.601,0.808-0.895 c0.302-0.333,0.602-0.66,0.898-0.983c0.322-0.35,0.641-0.695,0.956-1.034c0.287-0.308,0.57-0.611,0.851-0.909 c0.317-0.337,0.632-0.669,0.942-0.994c0.265-0.277,0.526-0.55,0.786-0.819c0.311-0.323,0.62-0.641,0.925-0.952 c0.247-0.252,0.49-0.499,0.732-0.743c0.308-0.311,0.613-0.617,0.913-0.916c0.224-0.223,0.445-0.441,0.665-0.657 c0.305-0.3,0.608-0.596,0.905-0.883c0.204-0.197,0.405-0.39,0.606-0.581c0.301-0.288,0.6-0.572,0.893-0.846 c0.185-0.173,0.366-0.341,0.547-0.509c0.298-0.276,0.593-0.548,0.882-0.811c0.165-0.15,0.326-0.295,0.488-0.44 c0.295-0.265,0.588-0.526,0.873-0.777c0.145-0.127,0.287-0.25,0.429-0.374c0.292-0.253,0.581-0.503,0.863-0.741 c0.128-0.109,0.253-0.213,0.379-0.319c0.286-0.24,0.569-0.475,0.844-0.7c0.113-0.093,0.224-0.181,0.335-0.271 c0.279-0.225,0.555-0.447,0.824-0.657c0.098-0.077,0.193-0.15,0.29-0.225c0.273-0.212,0.543-0.419,0.805-0.616 c0.084-0.063,0.166-0.123,0.249-0.185c0.266-0.198,0.53-0.392,0.784-0.575c0.07-0.05,0.137-0.097,0.205-0.146 c0.26-0.185,0.516-0.365,0.764-0.534c0.058-0.04,0.115-0.077,0.172-0.116c0.251-0.17,0.498-0.335,0.735-0.489 c0.049-0.032,0.097-0.062,0.146-0.093c0.241-0.155,0.478-0.305,0.705-0.444c0.039-0.024,0.076-0.045,0.114-0.069 c0.232-0.141,0.459-0.277,0.678-0.402c0.031-0.018,0.06-0.034,0.091-0.051c0.221-0.126,0.437-0.247,0.644-0.358 c0.025-0.014,0.049-0.026,0.074-0.039c0.209-0.111,0.412-0.217,0.606-0.314c0.019-0.01,0.037-0.018,0.057-0.028 c0.197-0.098,0.388-0.19,0.571-0.274c0.012-0.006,0.024-0.01,0.036-0.016c0.186-0.085,0.366-0.164,0.537-0.236 c0.009-0.004,0.017-0.007,0.026-0.01c0.173-0.072,0.339-0.139,0.496-0.198c0.005-0.002,0.01-0.004,0.016-0.006 c0.159-0.06,0.312-0.114,0.456-0.163c0.005-0.002,0.009-0.003,0.014-0.004c0.143-0.048,0.28-0.091,0.408-0.128 c0.008-0.002,0.014-0.004,0.022-0.006c0.125-0.036,0.243-0.068,0.354-0.095c0.009-0.002,0.017-0.004,0.026-0.006 c0.107-0.026,0.209-0.049,0.303-0.068c0.018-0.004,0.033-0.006,0.05-0.009c0.082-0.016,0.162-0.03,0.234-0.041 c0.025-0.004,0.046-0.006,0.069-0.009c0.06-0.008,0.12-0.017,0.172-0.022c0.03-0.003,0.054-0.004,0.082-0.007 c0.04-0.003,0.083-0.007,0.118-0.009c0.059-0.003,0.112-0.004,0.158-0.004C161.289,72.046,181.356,86.249,218.643,139.485z M15.069,279.419c0.041-0.375,0.103-0.782,0.18-1.215c0.005-0.026,0.007-0.048,0.011-0.075 c2.391-13.025,21.153-51.417,48.466-95.617c0.086-0.139,0.171-0.277,0.257-0.416l12.905,2.19l9.244,16.311 c-7.311,2.209-13.068,7.788-15.476,15.072c-2.486,7.522-1.032,15.719,3.89,21.929c6.617,8.345,16.463,13.099,27.086,13.099 c0.187,0,0.374-0.002,0.561-0.005c3.886-0.061,7.649-0.764,11.182-2.029l10.358,18.277l-0.145,0.479l0.502,0.152l26.62,46.968 c-0.066,0-0.134,0-0.199-0.001c-0.048,0-0.094-0.001-0.142-0.001c-1.524-0.009-3.034-0.021-4.53-0.038 c-0.233-0.003-0.46-0.007-0.692-0.01c-1.3-0.016-2.594-0.033-3.873-0.055c-0.366-0.006-0.723-0.015-1.087-0.021 c-1.142-0.021-2.282-0.043-3.406-0.069c-0.399-0.009-0.789-0.021-1.185-0.03c-1.072-0.026-2.143-0.053-3.199-0.084 c-0.454-0.013-0.899-0.029-1.351-0.043c-0.985-0.031-1.97-0.061-2.94-0.095c-0.484-0.017-0.958-0.037-1.438-0.055 c-0.928-0.035-1.858-0.069-2.773-0.108c-0.493-0.021-0.977-0.044-1.467-0.065c-0.883-0.039-1.768-0.078-2.638-0.12 c-0.515-0.025-1.02-0.052-1.53-0.078c-0.834-0.042-1.67-0.085-2.492-0.13c-0.109-0.006-0.216-0.013-0.324-0.019l-23.384-41.135 l-13.043,7.413l18.429,32.417c-0.142-0.013-0.287-0.025-0.428-0.038c-0.522-0.048-1.035-0.098-1.551-0.147 c-0.652-0.062-1.306-0.124-1.949-0.188c-0.506-0.05-1.004-0.103-1.505-0.154c-0.634-0.066-1.269-0.131-1.894-0.198 c-0.506-0.055-1.004-0.111-1.504-0.167c-0.605-0.068-1.21-0.135-1.806-0.205c-0.503-0.059-0.998-0.119-1.495-0.179 c-0.583-0.07-1.166-0.14-1.74-0.212c-0.494-0.062-0.981-0.125-1.47-0.189c-0.559-0.072-1.118-0.145-1.67-0.219 c-0.488-0.065-0.968-0.132-1.449-0.199c-0.544-0.076-1.089-0.151-1.625-0.228c-0.473-0.068-0.939-0.137-1.406-0.206 c-0.526-0.078-1.05-0.156-1.568-0.235c-0.466-0.072-0.926-0.144-1.386-0.217c-0.509-0.081-1.017-0.161-1.519-0.243 c-0.454-0.074-0.903-0.15-1.351-0.225c-0.49-0.083-0.979-0.165-1.461-0.249c-0.447-0.078-0.888-0.157-1.329-0.236 c-0.473-0.085-0.944-0.17-1.409-0.256c-0.435-0.081-0.865-0.162-1.294-0.244c-0.459-0.087-0.916-0.175-1.367-0.264 c-0.421-0.083-0.837-0.166-1.252-0.25c-0.444-0.09-0.885-0.18-1.322-0.271c-0.413-0.086-0.823-0.173-1.23-0.26 c-0.424-0.091-0.847-0.182-1.265-0.274c-0.404-0.089-0.804-0.179-1.202-0.269c-0.41-0.093-0.817-0.186-1.22-0.28 c-0.39-0.091-0.777-0.183-1.161-0.275c-0.397-0.095-0.792-0.191-1.183-0.288c-0.379-0.094-0.755-0.188-1.128-0.283 c-0.383-0.097-0.763-0.195-1.14-0.293c-0.366-0.096-0.729-0.192-1.088-0.288c-0.371-0.099-0.739-0.2-1.103-0.3 c-0.354-0.098-0.705-0.196-1.052-0.294c-0.357-0.101-0.71-0.203-1.06-0.305c-0.344-0.1-0.685-0.201-1.023-0.302 c-0.342-0.103-0.681-0.206-1.017-0.309c-0.332-0.102-0.661-0.205-0.987-0.308c-0.33-0.104-0.656-0.209-0.979-0.314 c-0.32-0.104-0.639-0.209-0.953-0.314c-0.316-0.105-0.627-0.211-0.937-0.318c-0.31-0.107-0.618-0.213-0.922-0.321 c-0.302-0.107-0.6-0.214-0.896-0.322c-0.299-0.109-0.596-0.217-0.889-0.327c-0.289-0.108-0.573-0.216-0.856-0.325 c-0.288-0.11-0.575-0.221-0.857-0.332c-0.279-0.11-0.552-0.221-0.825-0.331c-0.273-0.111-0.544-0.221-0.811-0.333 c-0.268-0.112-0.532-0.225-0.794-0.337c-0.262-0.113-0.524-0.225-0.78-0.339c-0.254-0.112-0.502-0.225-0.75-0.337 c-0.252-0.115-0.504-0.23-0.751-0.345c-0.242-0.113-0.48-0.228-0.716-0.342c-0.24-0.116-0.481-0.232-0.715-0.348 c-0.232-0.115-0.458-0.231-0.684-0.346c-0.228-0.116-0.455-0.233-0.677-0.35c-0.221-0.117-0.437-0.234-0.653-0.351 c-0.216-0.117-0.432-0.235-0.643-0.352c-0.21-0.118-0.414-0.236-0.619-0.354c-0.205-0.118-0.41-0.237-0.61-0.355 c-0.199-0.118-0.391-0.237-0.584-0.356c-0.194-0.119-0.389-0.239-0.577-0.359c-0.188-0.119-0.37-0.239-0.552-0.359 c-0.183-0.12-0.366-0.24-0.544-0.36c-0.177-0.12-0.347-0.241-0.519-0.361c-0.172-0.121-0.346-0.242-0.513-0.364 c-0.166-0.121-0.326-0.242-0.486-0.364c-0.161-0.121-0.323-0.242-0.479-0.364c-0.156-0.122-0.306-0.245-0.457-0.368 c-0.15-0.122-0.301-0.243-0.446-0.365c-0.146-0.123-0.284-0.246-0.425-0.369c-0.139-0.122-0.281-0.244-0.415-0.367 c-0.135-0.123-0.263-0.247-0.393-0.37c-0.129-0.123-0.261-0.246-0.385-0.369c-0.125-0.124-0.243-0.249-0.363-0.373 c-0.118-0.122-0.238-0.244-0.351-0.367c-0.116-0.125-0.224-0.251-0.334-0.376c-0.108-0.122-0.218-0.245-0.321-0.367 c-0.105-0.125-0.202-0.25-0.302-0.375c-0.098-0.123-0.199-0.246-0.292-0.368c-0.096-0.127-0.184-0.253-0.275-0.38 c-0.087-0.121-0.177-0.243-0.259-0.364c-0.087-0.128-0.165-0.256-0.247-0.384c-0.077-0.12-0.156-0.241-0.228-0.361 c-0.077-0.129-0.146-0.259-0.219-0.388c-0.066-0.119-0.136-0.238-0.198-0.357c-0.068-0.132-0.129-0.263-0.192-0.395 c-0.056-0.116-0.115-0.233-0.167-0.349c-0.06-0.134-0.111-0.269-0.165-0.403c-0.046-0.113-0.095-0.227-0.137-0.34 c-0.051-0.139-0.094-0.278-0.139-0.417c-0.035-0.108-0.075-0.217-0.107-0.325c-0.042-0.144-0.075-0.287-0.111-0.431 c-0.026-0.103-0.056-0.207-0.079-0.31c-0.033-0.149-0.056-0.298-0.082-0.447c-0.017-0.097-0.039-0.194-0.053-0.291 c-0.024-0.163-0.038-0.325-0.054-0.488c-0.008-0.083-0.021-0.165-0.027-0.248c-0.018-0.244-0.027-0.488-0.027-0.732 C15.002,280.199,15.026,279.824,15.069,279.419z M216.45,404.823c0.041-0.372,0.102-0.777,0.179-1.205 c0.005-0.03,0.007-0.055,0.013-0.085c2.157-11.751,17.639-44.149,40.704-82.828h0.001l1.681-2.796 c2.096-3.488,4.215-6.958,6.345-10.405l12.898,2.189l9.244,16.311c-7.312,2.209-13.07,7.788-15.477,15.074 c-2.485,7.522-1.031,15.718,3.891,21.925c6.617,8.347,16.462,13.1,27.085,13.1c0.186,0,0.374-0.001,0.56-0.004 c3.886-0.061,7.65-0.764,11.183-2.029l10.358,18.277l-0.145,0.479l0.503,0.152l26.62,46.968c-0.066,0-0.134,0-0.2-0.001 c-0.039,0-0.076-0.001-0.115-0.001c-1.534-0.009-3.053-0.021-4.558-0.038c-0.221-0.003-0.437-0.006-0.658-0.009 c-1.313-0.016-2.618-0.034-3.908-0.056c-0.353-0.006-0.699-0.014-1.05-0.021c-1.155-0.021-2.307-0.043-3.444-0.069 c-0.385-0.009-0.762-0.02-1.145-0.029c-1.086-0.027-2.171-0.054-3.24-0.085c-0.442-0.013-0.874-0.028-1.313-0.042 c-0.998-0.031-1.995-0.062-2.978-0.097c-0.481-0.017-0.953-0.036-1.431-0.054c-0.928-0.035-1.856-0.069-2.77-0.108 c-0.499-0.021-0.989-0.044-1.484-0.066c-0.881-0.039-1.763-0.077-2.631-0.119c-0.509-0.025-1.009-0.052-1.514-0.077 c-0.837-0.043-1.675-0.085-2.5-0.13c-0.111-0.006-0.219-0.013-0.329-0.019l-23.384-41.135l-13.043,7.413l18.429,32.416 c-0.147-0.013-0.297-0.026-0.443-0.039c-0.505-0.046-1.002-0.095-1.502-0.142c-0.666-0.063-1.332-0.127-1.989-0.192 c-0.5-0.05-0.992-0.102-1.487-0.153c-0.64-0.066-1.281-0.132-1.912-0.2c-0.498-0.054-0.988-0.109-1.48-0.164 c-0.614-0.069-1.227-0.137-1.832-0.208c-0.494-0.057-0.98-0.117-1.468-0.175c-0.592-0.071-1.184-0.143-1.767-0.216 c-0.484-0.061-0.961-0.123-1.439-0.185c-0.572-0.074-1.143-0.148-1.706-0.224c-0.478-0.064-0.949-0.13-1.421-0.195 c-0.55-0.076-1.099-0.153-1.64-0.23c-0.468-0.067-0.93-0.136-1.392-0.204c-0.534-0.079-1.068-0.159-1.594-0.239 c-0.455-0.07-0.904-0.141-1.354-0.212c-0.518-0.082-1.035-0.164-1.546-0.248c-0.446-0.073-0.886-0.147-1.326-0.221 c-0.5-0.084-0.998-0.169-1.49-0.255c-0.438-0.076-0.87-0.153-1.301-0.231c-0.48-0.086-0.958-0.172-1.431-0.26 c-0.43-0.08-0.854-0.16-1.278-0.241c-0.463-0.088-0.924-0.177-1.38-0.266c-0.419-0.082-0.833-0.166-1.246-0.249 c-0.446-0.09-0.89-0.18-1.328-0.272c-0.409-0.085-0.813-0.171-1.215-0.257c-0.432-0.093-0.862-0.186-1.288-0.279 c-0.394-0.087-0.784-0.174-1.172-0.262c-0.42-0.095-0.838-0.191-1.251-0.287c-0.383-0.089-0.762-0.179-1.138-0.27 c-0.403-0.097-0.803-0.194-1.199-0.292c-0.375-0.093-0.746-0.186-1.115-0.279c-0.387-0.098-0.772-0.197-1.153-0.297 c-0.362-0.094-0.72-0.189-1.076-0.285c-0.374-0.1-0.745-0.201-1.113-0.303c-0.353-0.097-0.702-0.195-1.049-0.293 c-0.357-0.101-0.712-0.203-1.063-0.306c-0.342-0.1-0.681-0.2-1.016-0.3c-0.345-0.103-0.687-0.207-1.026-0.312 c-0.329-0.101-0.655-0.203-0.978-0.305c-0.331-0.105-0.659-0.21-0.984-0.316c-0.321-0.104-0.639-0.209-0.953-0.314 c-0.315-0.105-0.625-0.211-0.934-0.317c-0.311-0.107-0.62-0.214-0.925-0.322c-0.302-0.107-0.6-0.214-0.896-0.321 c-0.298-0.108-0.595-0.217-0.887-0.326c-0.29-0.108-0.576-0.217-0.86-0.326c-0.286-0.11-0.572-0.22-0.852-0.331 c-0.279-0.11-0.554-0.221-0.828-0.332c-0.273-0.111-0.545-0.222-0.812-0.333c-0.267-0.112-0.53-0.224-0.791-0.336 c-0.262-0.113-0.524-0.225-0.78-0.339c-0.256-0.113-0.507-0.227-0.757-0.34c-0.25-0.114-0.499-0.227-0.743-0.341 c-0.244-0.114-0.483-0.229-0.722-0.344c-0.239-0.115-0.478-0.23-0.711-0.346c-0.232-0.115-0.458-0.231-0.684-0.346 c-0.229-0.117-0.457-0.234-0.68-0.351c-0.221-0.116-0.436-0.233-0.651-0.35c-0.216-0.117-0.432-0.234-0.641-0.352 c-0.212-0.118-0.417-0.238-0.623-0.357c-0.203-0.117-0.407-0.235-0.605-0.353c-0.2-0.119-0.393-0.238-0.587-0.358 c-0.194-0.119-0.388-0.238-0.576-0.358c-0.188-0.12-0.37-0.24-0.553-0.36c-0.182-0.119-0.365-0.239-0.541-0.359 c-0.178-0.121-0.349-0.242-0.521-0.363c-0.172-0.121-0.345-0.242-0.511-0.363c-0.167-0.121-0.327-0.243-0.488-0.365 c-0.16-0.121-0.322-0.242-0.477-0.363c-0.156-0.122-0.306-0.245-0.457-0.368c-0.15-0.122-0.301-0.243-0.446-0.365 c-0.146-0.123-0.286-0.247-0.427-0.371c-0.138-0.121-0.279-0.243-0.412-0.364c-0.137-0.125-0.267-0.251-0.399-0.376 c-0.127-0.12-0.255-0.241-0.377-0.362c-0.127-0.126-0.247-0.252-0.368-0.378c-0.117-0.121-0.236-0.242-0.348-0.363 c-0.116-0.126-0.225-0.252-0.336-0.378c-0.107-0.122-0.217-0.243-0.319-0.365c-0.106-0.127-0.205-0.254-0.306-0.381 c-0.096-0.121-0.196-0.242-0.287-0.363c-0.097-0.128-0.186-0.255-0.277-0.383c-0.086-0.121-0.176-0.241-0.258-0.362 c-0.087-0.129-0.166-0.258-0.248-0.386c-0.076-0.119-0.155-0.239-0.227-0.358c-0.078-0.13-0.148-0.26-0.22-0.391 c-0.066-0.118-0.135-0.237-0.197-0.355c-0.068-0.132-0.129-0.263-0.192-0.395c-0.056-0.116-0.115-0.233-0.167-0.349 c-0.059-0.134-0.11-0.267-0.164-0.401c-0.046-0.114-0.096-0.229-0.138-0.343c-0.051-0.138-0.092-0.275-0.137-0.412 c-0.036-0.11-0.076-0.22-0.108-0.329c-0.042-0.143-0.075-0.286-0.111-0.429c-0.026-0.104-0.056-0.208-0.079-0.311 c-0.033-0.149-0.056-0.298-0.082-0.447c-0.017-0.097-0.039-0.194-0.053-0.291c-0.024-0.163-0.038-0.325-0.054-0.488 c-0.008-0.083-0.021-0.165-0.027-0.248c-0.018-0.244-0.027-0.488-0.027-0.732C216.383,405.603,216.407,405.228,216.45,404.823z"></path><g><path style="fill:#FFFFFF;" d="M271.144,339.385l-12.959-7.558c-4.059,6.958-7.939,13.824-11.536,20.406l13.166,7.192 C263.345,352.966,267.157,346.223,271.144,339.385z"></path><path style="fill:#FFFFFF;" d="M238.187,404.244c3.352-8.871,8.963-20.883,16.228-34.735l-13.287-6.968 c-7.649,14.589-13.36,26.836-16.974,36.401L238.187,404.244z"></path><path style="fill:#FFFFFF;" d="M384.451,239.042c-5.842-7.008-11.36-13.097-16.399-18.096l-10.565,10.649 c4.707,4.669,9.901,10.405,15.442,17.053L384.451,239.042z"></path><path style="fill:#FFFFFF;" d="M404.866,291.439l12.379-8.476c-9.253-13.516-18.187-25.711-26.553-36.247l-11.75,9.329 C387.09,266.307,395.812,278.215,404.866,291.439z"></path></g></svg>